<svg width="25" height="24" viewBox="0 0 25 24" fill="none" xmlns="http://www.w3.org/2000/svg">
<path d="M24.794 11.5837C24.501 11.1242 23.9465 10.7954 23.3482 10.7265L23.1253 10.7007L23.4289 10.3375C23.7395 9.96575 23.75 9.42183 23.4587 8.91922C23.1657 8.41661 22.6323 8.05686 22.062 7.98285L15.8015 7.16352C15.6015 7.1377 15.405 7.02238 15.2769 6.85369L11.3184 1.62792C10.9605 1.15285 10.3902 0.858516 9.83576 0.860237C9.27955 0.861958 8.85142 1.15974 8.71807 1.63653L7.25646 6.87951C7.20908 7.0482 7.07047 7.16524 6.88097 7.19278L1.02225 8.05342C0.4906 8.13088 0.127392 8.49406 0.0765074 8.99839C0.0256231 9.50273 0.295837 10.0466 0.78187 10.415L1.25737 10.7765L1.04682 10.804C0.480072 10.8763 0.0835268 11.2068 0.0115869 11.6681C-0.060353 12.1294 0.20635 12.6251 0.709929 12.9625L6.24579 16.6684C6.42301 16.7871 6.53355 16.9593 6.53881 17.1279L6.69498 22.3864C6.70901 22.8649 7.05643 23.3366 7.60212 23.6206C8.14606 23.9029 8.77597 23.939 9.24446 23.7118L14.3978 21.2125C14.5627 21.1316 14.7838 21.1316 14.9874 21.2108L21.3251 23.6739C21.576 23.7703 21.8322 23.8185 22.0778 23.8168C22.3954 23.8168 22.6919 23.7325 22.9218 23.5707C23.3306 23.2832 23.4517 22.8099 23.2394 22.3331L20.8882 17.0815C20.8127 16.9128 20.8391 16.7407 20.9601 16.6202L24.7203 12.8833C25.0625 12.5442 25.0923 12.0468 24.801 11.5872L24.794 11.5837ZM0.946804 9.24454C0.96786 9.03282 1.11349 8.88823 1.33633 8.85553L7.19505 7.99662C7.65125 7.92949 7.9934 7.64548 8.10745 7.23754L9.56906 1.99455C9.62521 1.79489 9.79716 1.67612 10.0288 1.67612C10.2604 1.67612 10.4902 1.79316 10.6394 1.99111L14.5978 7.21688C14.9066 7.62482 15.3822 7.90539 15.8717 7.96908L22.1322 8.7884C22.3691 8.81938 22.5832 8.96397 22.706 9.17396C22.8288 9.38396 22.8235 9.60256 22.6937 9.75747L22.0111 10.5768L16.7437 9.98296C16.5314 9.95886 16.3279 9.85387 16.1998 9.70067L12.187 4.92932C11.822 4.49556 11.2289 4.22704 10.6394 4.22876C10.0498 4.23048 9.58661 4.50244 9.42869 4.93792L7.69687 9.72821C7.64072 9.88141 7.48807 9.98985 7.28804 10.0139L2.31191 10.6422L1.23983 9.82977C1.03629 9.67658 0.927504 9.45797 0.948559 9.24626L0.946804 9.24454ZM1.21175 12.4237C1.0012 12.2826 0.894166 12.0829 0.923995 11.8901C0.953823 11.6973 1.11349 11.5648 1.35037 11.5338L2.13118 11.4357L6.13525 14.4703C6.3072 14.6011 6.41599 14.7887 6.42652 14.9729L6.48442 15.954L1.21 12.422L1.21175 12.4237ZM22.1164 22.0336C22.1322 22.0198 22.148 22.006 22.162 21.9923L22.3708 22.457C22.4603 22.6567 22.4112 22.8477 22.241 22.9665C22.0708 23.0853 21.8234 23.1025 21.583 23.0078L15.247 20.5464C15.0014 20.45 14.7435 20.4035 14.4978 20.4035C14.2522 20.4035 14.0171 20.4534 13.817 20.5516L8.66367 23.0508C8.46891 23.1455 8.21624 23.1317 7.98814 23.0147C7.76004 22.8959 7.62142 22.7066 7.6144 22.5069L7.60037 22.0404C7.62318 22.0559 7.64599 22.0697 7.66704 22.0818C8.19168 22.3933 8.7865 22.4312 9.21989 22.1833L13.9907 19.4482C14.1451 19.3604 14.3522 19.3604 14.5469 19.4465L20.6162 22.1454C20.8566 22.2522 21.1005 22.3038 21.3304 22.3038C21.6304 22.3038 21.9059 22.2126 22.1182 22.0353L22.1164 22.0336ZM23.957 12.348L20.3741 15.9076L19.9635 14.9282C19.8863 14.744 19.9056 14.5547 20.0144 14.4238L22.5656 11.3669L23.392 11.4598C23.643 11.4874 23.8658 11.6199 23.9869 11.8127C24.1079 12.0055 24.0957 12.2051 23.9535 12.3463L23.957 12.348Z" fill="#FF5722"/>
</svg>
